<svg width="64" height="64" viewBox="0 0 64 64" fill="none" xmlns="http://www.w3.org/2000/svg">
<path fill-rule="evenodd" clip-rule="evenodd" d="M36.7636 9.69497C39.3558 10.2674 41.4064 12.3229 41.9739 14.9509C42.0126 15.12 42.2447 15.12 42.2834 14.9509C42.8509 12.3229 44.8886 10.2674 47.4937 9.69497C47.6614 9.65594 47.6614 9.42177 47.4937 9.38274C44.9015 8.81031 42.8509 6.75479 42.2834 4.12684C42.2447 3.95772 42.0126 3.95772 41.9739 4.12684C41.4064 6.75479 39.3687 8.81031 36.7636 9.38274C36.5959 9.42177 36.5959 9.65594 36.7636 9.69497Z" fill="#29B5E8"/>
<path fill-rule="evenodd" clip-rule="evenodd" d="M50.1506 29.0956C50.1506 28.0158 49.4155 27.1051 48.3709 26.8709C38.5951 24.7244 30.8957 16.9576 28.7678 7.09629C28.5356 6.04251 27.6328 5.30096 26.5753 5.30096C25.5178 5.30096 24.6021 6.04251 24.3829 7.09629C22.2549 16.9706 14.5684 24.7244 4.77976 26.8709C3.73512 27.1051 3 28.0158 3 29.0956C3 30.1754 3.73512 31.0861 4.77976 31.3202C14.5555 33.4668 22.2549 41.2336 24.3829 51.0949C24.615 52.1487 25.5178 52.8902 26.5753 52.8902C27.6328 52.8902 28.5485 52.1487 28.7678 51.0949C30.8957 41.2206 38.5822 33.4668 48.3709 31.3202C49.4155 31.0861 50.1506 30.1754 50.1506 29.1086V29.0956ZM26.5753 46.9968C23.6735 38.6317 17.122 32.0228 8.82934 29.0956C17.1091 26.1684 23.6735 19.5595 26.5753 11.1943C29.4771 19.5595 36.0286 26.1684 44.3213 29.0956C36.0415 32.0228 29.4771 38.6317 26.5753 46.9968Z" fill="#29B5E8"/>
<path fill-rule="evenodd" clip-rule="evenodd" d="M60.7388 48.6003C55.5414 47.4555 51.4532 43.3314 50.3182 38.0885C50.2409 37.7373 49.7766 37.7373 49.6992 38.0885C48.5643 43.3314 44.476 47.4555 39.2786 48.6003C38.9304 48.6784 38.9304 49.1597 39.2786 49.2248C44.476 50.3696 48.5643 54.4937 49.6992 59.7366C49.7766 60.0878 50.2409 60.0878 50.3182 59.7366C51.4532 54.4937 55.5414 50.3696 60.7388 49.2248C61.0871 49.1467 61.0871 48.6654 60.7388 48.6003Z" fill="#29B5E8"/>
</svg>
