<svg width="64" height="64" viewBox="0 0 64 64" fill="none" xmlns="http://www.w3.org/2000/svg">
<path d="M55.7441 40.8019C54.0223 39.809 51.9132 40.1004 50.5036 41.3524L48.0071 39.7982C49.1262 37.4236 49.7718 34.7901 49.7718 31.9946C49.7718 29.1991 49.0831 26.3821 47.8887 23.9428L50.2776 22.4533C51.1384 23.3168 52.3006 23.7917 53.4951 23.7917C54.2591 23.7917 55.0339 23.5974 55.7441 23.1873C57.8962 21.9352 58.6387 19.1614 57.4012 17.0027C56.153 14.844 53.3875 14.0993 51.2353 15.3405C49.5459 16.3119 48.7496 18.2223 49.0616 20.0464L46.5436 21.6114C43.4875 17.1862 38.5483 14.1749 32.8881 13.7431V10.8289C34.7067 10.2461 36.0303 8.55154 36.0303 6.53319C36.0303 4.03994 34.0073 2 31.5108 2C29.0143 2 26.9912 4.02914 26.9912 6.53319C26.9912 8.57312 28.3471 10.2785 30.1979 10.8505V13.7431C24.4409 14.1533 19.4156 17.2402 16.3596 21.7841L13.9169 20.2623C14.3365 18.3842 13.5402 16.3659 11.7862 15.3513C9.63407 14.0993 6.85778 14.844 5.60953 17.0135C4.36128 19.1722 5.10378 21.9568 7.2667 23.1981C7.97691 23.6082 8.75168 23.8025 9.5157 23.8025C10.6348 23.8025 11.7324 23.3815 12.5718 22.6044L15.0252 24.1371C13.8846 26.5224 13.2282 29.1775 13.2282 31.9946C13.2282 34.8117 13.8415 37.2833 14.8961 39.6039L12.335 41.2013C10.9254 40.068 8.9131 39.8413 7.25593 40.8019C5.10378 42.054 4.36128 44.8279 5.59877 46.9973C6.43811 48.4436 7.95539 49.2639 9.5157 49.2639C10.2797 49.2639 11.0545 49.0696 11.7647 48.6595C13.6048 47.5909 14.4011 45.4215 13.8308 43.4571L16.1874 41.9892C19.2219 46.6519 24.3118 49.8359 30.1657 50.2569V53.1495C28.3148 53.7215 26.9589 55.4269 26.9589 57.4668C26.9589 59.9601 28.982 62 31.4785 62C33.975 62 35.998 59.9709 35.998 57.4668C35.998 55.4485 34.6744 53.7647 32.8559 53.1711V50.2569C38.6129 49.8251 43.6274 46.7167 46.662 42.1619L49.0831 43.673C48.6312 45.5726 49.4167 47.6341 51.1923 48.6595C51.9025 49.0696 52.6772 49.2639 53.4413 49.2639C55.0016 49.2639 56.5296 48.4544 57.3582 46.9973C58.6064 44.8386 57.8639 42.054 55.701 40.8127L55.7441 40.8019ZM52.5696 17.6827C52.8602 17.5208 53.1722 17.4344 53.4843 17.4344C54.1192 17.4344 54.7326 17.7582 55.0661 18.3519C55.5719 19.2261 55.2706 20.3486 54.399 20.8559C53.5273 21.3632 52.4082 21.061 51.9025 20.1867C51.3967 19.3125 51.698 18.19 52.5696 17.6827ZM8.62255 20.8559C7.75093 20.3486 7.44963 19.2261 7.95539 18.3519C8.28897 17.769 8.9131 17.4344 9.53722 17.4344C9.84929 17.4344 10.1613 17.51 10.4519 17.6827C11.3235 18.19 11.6248 19.3125 11.1191 20.1867C10.6133 21.061 9.49418 21.3632 8.62255 20.8559ZM10.4519 46.3065C9.58027 46.8138 8.46114 46.5116 7.95539 45.6373C7.44963 44.7631 7.75093 43.6406 8.62255 43.1333C9.49418 42.626 10.6133 42.9282 11.1191 43.8025C11.6248 44.6767 11.3235 45.7992 10.4519 46.3065ZM31.5108 4.70912C32.5223 4.70912 33.3401 5.52941 33.3401 6.54398C33.3401 7.55855 32.5223 8.37884 31.5108 8.37884C30.4992 8.37884 29.6814 7.55855 29.6814 6.54398C29.6814 5.52941 30.4992 4.70912 31.5108 4.70912ZM31.5108 59.2801C30.4992 59.2801 29.6814 58.4598 29.6814 57.4452C29.6814 56.4307 30.4992 55.6104 31.5108 55.6104C32.5223 55.6104 33.3401 56.4307 33.3401 57.4452C33.3401 58.4598 32.5223 59.2801 31.5108 59.2801ZM31.5108 47.6125C22.9236 47.6125 15.9399 40.6077 15.9399 31.9946C15.9399 23.3815 22.9236 16.3767 31.5108 16.3767C40.0979 16.3767 47.0816 23.3815 47.0816 31.9946C47.0816 40.6077 40.0979 47.6125 31.5108 47.6125ZM55.0661 45.6373C54.5604 46.5116 53.4413 46.8138 52.5696 46.3065C51.698 45.7992 51.3967 44.6767 51.9025 43.8025C52.236 43.2196 52.8602 42.8851 53.4843 42.8851C53.7964 42.8851 54.1084 42.9606 54.399 43.1333C55.2706 43.6406 55.5719 44.7631 55.0661 45.6373Z" fill="#29B5E8"/>
<path d="M10.8823 37.6719V27.0944C10.8823 26.3497 10.2797 25.7453 9.53722 25.7453C8.79473 25.7453 8.19212 26.3497 8.19212 27.0944V37.6719C8.19212 38.4166 8.79473 39.021 9.53722 39.021C10.2797 39.021 10.8823 38.4166 10.8823 37.6719Z" fill="#29B5E8"/>
<path d="M52.1392 27.0943V37.5639C52.1392 38.3086 52.7418 38.913 53.4843 38.913C54.2268 38.913 54.8294 38.3086 54.8294 37.5639V27.0943C54.8294 26.3496 54.2268 25.7452 53.4843 25.7452C52.7418 25.7452 52.1392 26.3496 52.1392 27.0943Z" fill="#29B5E8"/>
<path d="M25.6999 52.7501L16.6393 47.5045C15.9937 47.1268 15.1759 47.3534 14.7992 48.001C14.4226 48.6486 14.6486 49.4689 15.2942 49.8467L24.3548 55.0922C24.57 55.211 24.796 55.2757 25.022 55.2757C25.4847 55.2757 25.9367 55.0383 26.1842 54.6065C26.5608 53.9589 26.3348 53.1386 25.6892 52.7609L25.6999 52.7501Z" fill="#29B5E8"/>
<path d="M37.3646 12.0698L46.4037 17.3046C46.6189 17.4233 46.8449 17.488 47.0709 17.488C47.5336 17.488 47.9855 17.2506 48.233 16.8189C48.5989 16.1713 48.3837 15.351 47.738 14.9732L38.699 9.73845C38.0533 9.36068 37.2355 9.58734 36.8589 10.2349C36.493 10.8825 36.7082 11.7028 37.3539 12.0806L37.3646 12.0698Z" fill="#29B5E8"/>
<path d="M46.3391 47.5261L37.3108 52.7501C36.6652 53.1279 36.45 53.9482 36.8158 54.5957C37.0633 55.0275 37.5153 55.2649 37.978 55.2649C38.204 55.2649 38.4407 55.211 38.6452 55.0814L47.6735 49.8575C48.3191 49.4797 48.5343 48.6594 48.1685 48.0118C47.7918 47.3642 46.974 47.1484 46.3284 47.5153L46.3391 47.5261Z" fill="#29B5E8"/>
<path d="M15.9722 17.4832C16.1982 17.4832 16.4349 17.4292 16.6393 17.2997L25.6569 12.0757C26.3025 11.698 26.5178 10.8777 26.1519 10.2301C25.7753 9.58248 24.9574 9.36661 24.3118 9.73358L15.2942 14.9575C14.6486 15.3353 14.4334 16.1556 14.7992 16.8032C15.0467 17.2349 15.4987 17.4724 15.9614 17.4724L15.9722 17.4832Z" fill="#29B5E8"/>
<path d="M43.0356 30.8809L37.0741 27.0385C36.45 26.6391 35.6214 26.8118 35.2125 27.4486C34.8143 28.0746 34.9865 28.9057 35.6214 29.3159L39.8181 32.025L35.6214 34.7341C34.9973 35.1335 34.8143 35.9753 35.2125 36.6013C35.4707 37.0007 35.9012 37.2166 36.3424 37.2166C36.5899 37.2166 36.8481 37.1518 37.0633 37.0007L43.0248 33.1583C43.4122 32.91 43.6382 32.4783 43.6382 32.025C43.6382 31.5717 43.4014 31.1399 43.0248 30.8917L43.0356 30.8809Z" fill="#29B5E8"/>
<path d="M27.7983 27.446C27.4001 26.82 26.5608 26.6365 25.9367 27.0358L19.9752 30.8783C19.5878 31.1265 19.3618 31.5582 19.3618 32.0116C19.3618 32.4649 19.5986 32.8966 19.9752 33.1449L25.9367 36.9873C26.1626 37.1276 26.4101 37.2031 26.6576 37.2031C27.0988 37.2031 27.5293 36.9873 27.7875 36.5879C28.1857 35.9619 28.0135 35.1308 27.3786 34.7207L23.1819 32.0116L27.3786 29.3024C28.0027 28.9031 28.1857 28.0612 27.7875 27.4352L27.7983 27.446Z" fill="#29B5E8"/>
<path d="M33.0818 25.778C32.3609 25.6161 31.6399 26.0694 31.4785 26.7925L28.9497 38.0392C28.7883 38.7623 29.2402 39.4855 29.972 39.6474C30.0688 39.669 30.1657 39.6797 30.2733 39.6797C30.8866 39.6797 31.4462 39.2588 31.5861 38.622L34.1149 27.3754C34.2763 26.6522 33.8243 25.9291 33.0926 25.7672L33.0818 25.778Z" fill="#29B5E8"/>
</svg>
