<svg width="143" height="126" viewBox="0 0 143 126" fill="none" xmlns="http://www.w3.org/2000/svg">
<rect x="129.427" y="23.418" width="77" height="116" rx="10" transform="rotate(90 129.427 23.418)" fill="url(#paint0_linear_75_1848)"/>
<g opacity="0.6">
<rect x="18.4271" y="29.418" width="104" height="15" rx="6" fill="url(#paint1_linear_75_1848)" fill-opacity="0.5"/>
<rect x="85.4271" y="50.6177" width="41.6" height="44" rx="6" transform="rotate(90 85.4271 50.6177)" fill="url(#paint2_linear_75_1848)" fill-opacity="0.5"/>
<rect x="122.227" y="50.2178" width="42.4" height="31.2" rx="6" transform="rotate(90 122.227 50.2178)" fill="url(#paint3_linear_75_1848)" fill-opacity="0.5"/>
</g>
<path d="M75.0425 66.2751C79.6579 60.1037 83.8887 72.8466 85.4271 79.9894V89.418H31.4271V59.418C43.6579 60.7037 49.4271 83.418 54.9656 83.418C60.504 83.418 58.8887 68.8465 63.9656 74.418C69.0425 79.9894 69.2733 73.9894 75.0425 66.2751Z" fill="url(#paint4_linear_75_1848)"/>
<path d="M100.522 76.9082C101.28 76.9082 101.894 77.5225 101.894 78.2803C101.894 79.0382 101.28 79.6533 100.522 79.6533H98.7987C98.0409 79.6532 97.4266 79.0381 97.4266 78.2803C97.4268 77.5226 98.041 76.9084 98.7987 76.9082H100.522ZM114.427 76.9082C114.979 76.9084 115.427 77.356 115.427 77.9082V78.6533C115.426 79.2053 114.979 79.6532 114.427 79.6533H105.575C105.023 79.6532 104.575 79.2054 104.575 78.6533V77.9082C104.575 77.356 105.023 76.9083 105.575 76.9082H114.427ZM100.523 71.1631C101.281 71.1633 101.895 71.7777 101.895 72.5352C101.895 73.2929 101.281 73.9079 100.523 73.9082H98.7997C98.0419 73.9081 97.4276 73.293 97.4276 72.5352C97.428 71.7776 98.0421 71.1632 98.7997 71.1631H100.523ZM114.428 71.1631C114.979 71.1636 115.427 71.6113 115.428 72.1631V72.9082C115.427 73.46 114.979 73.9077 114.428 73.9082H105.576C105.024 73.9082 104.576 73.4603 104.576 72.9082V72.1631C104.576 71.611 105.024 71.1631 105.576 71.1631H114.428ZM100.522 65.4189C101.28 65.4189 101.894 66.0331 101.894 66.791C101.894 67.5489 101.28 68.1631 100.522 68.1631H98.7987C98.0409 68.1629 97.4266 67.5489 97.4266 66.791C97.4267 66.0332 98.0409 65.4191 98.7987 65.4189H100.522ZM114.427 65.4189C114.979 65.4189 115.427 65.8667 115.427 66.4189V67.1631C115.427 67.7154 114.979 68.1631 114.427 68.1631H105.575C105.023 68.1628 104.575 67.7152 104.575 67.1631V66.4189C104.575 65.8668 105.023 65.4192 105.575 65.4189H114.427ZM100.522 59.418C101.28 59.418 101.894 60.0322 101.894 60.79C101.894 61.548 101.28 62.1631 100.522 62.1631H98.7987C98.0409 62.1629 97.4266 61.5479 97.4266 60.79C97.4268 60.0323 98.041 59.4181 98.7987 59.418H100.522ZM114.427 59.418C114.979 59.418 115.427 59.8657 115.427 60.418V61.1631C115.426 61.7152 114.979 62.1631 114.427 62.1631H105.575C105.023 62.1628 104.576 61.715 104.576 61.1631V60.418C104.576 59.8658 105.023 59.4182 105.575 59.418H114.427Z" fill="url(#paint5_linear_75_1848)"/>
<path d="M28.1288 31.418C28.6811 31.418 29.1288 31.8657 29.1288 32.418V35.4717H32.2782C32.8303 35.4719 33.2782 35.9195 33.2782 36.4717V36.9717C33.2779 37.5236 32.8301 37.9714 32.2782 37.9717H29.1288V41.2695C29.1285 41.8216 28.6809 42.2686 28.1288 42.2686H27.6288C27.0767 42.2686 26.629 41.8216 26.6288 41.2695V37.9717H23.4266C22.8744 37.9717 22.4266 37.523 22.4266 36.9707V36.4707C22.4269 35.9186 22.8745 35.4717 23.4266 35.4717H26.6288V32.418C26.6288 31.8657 27.0765 31.418 27.6288 31.418H28.1288Z" fill="#6AA3FF"/>
<mask id="mask0_75_1848" style="mask-type:alpha" maskUnits="userSpaceOnUse" x="13" y="23" width="117" height="78">
<rect x="129.427" y="23.418" width="77" height="116" rx="10" transform="rotate(90 129.427 23.418)" fill="url(#paint6_linear_75_1848)"/>
</mask>
<g mask="url(#mask0_75_1848)">
<g filter="url(#filter0_d_75_1848)">
<path d="M26.3958 51.1514C27.1804 49.9068 28.995 49.9068 29.7796 51.1514L34.8548 59.2012C34.9133 59.294 34.9696 59.3877 35.0237 59.4814H45.4271C50.3976 59.4815 54.4271 63.5109 54.4271 68.4814V109.481C54.4271 114.452 50.3976 118.481 45.4271 118.481H9.42706C4.4565 118.481 0.427063 114.452 0.427063 109.481V68.4814C0.427063 63.5109 4.4565 59.4814 9.42706 59.4814H21.1517C21.2058 59.3877 21.2621 59.294 21.3206 59.2012L26.3958 51.1514Z" fill="url(#paint7_linear_75_1848)"/>
</g>
</g>
<path d="M26.3094 51.1516C27.094 49.9071 28.9077 49.9071 29.6923 51.1516L34.7684 59.2014C34.8269 59.2942 34.8823 59.388 34.9364 59.4817H46.5009C51.4714 59.4817 55.5009 63.5111 55.5009 68.4817V109.482C55.5007 114.452 51.4713 118.482 46.5009 118.482H10.5009C5.5304 118.482 1.50104 114.452 1.50085 109.482V68.4817C1.50085 63.5111 5.53029 59.4817 10.5009 59.4817H21.0653C21.1195 59.388 21.1748 59.2942 21.2333 59.2014L26.3094 51.1516Z" fill="url(#paint8_linear_75_1848)"/>
<path opacity="0.4" d="M11.9183 91.8476C7.33821 86.7459 3.13984 97.28 1.61316 103.185V110.979L55.5007 110.691V85.8914C43.3636 86.9542 37.3375 106.019 31.8414 106.019C26.3454 106.019 27.9484 93.9733 22.9104 98.579C17.8723 103.185 17.6433 98.2248 11.9183 91.8476Z" fill="url(#paint9_linear_75_1848)"/>
<path d="M1.50037 92.3514C3.28891 86.2181 8.27449 73.9514 13.9084 73.9514C20.9508 73.9514 19.9448 92.3514 28.9993 92.3514C38.0538 92.3514 40.0095 81.399 46.3812 81.399C52.7529 81.399 53.4236 90.199 55.1004 90.199" stroke="url(#paint10_linear_75_1848)" stroke-width="3" stroke-linecap="round"/>
<defs>
<filter id="filter0_d_75_1848" x="-14.5729" y="25.218" width="90" height="104.263" filterUnits="userSpaceOnUse" color-interpolation-filters="sRGB">
<feFlood flood-opacity="0" result="BackgroundImageFix"/>
<feColorMatrix in="SourceAlpha" type="matrix" values="0 0 0 0 0 0 0 0 0 0 0 0 0 0 0 0 0 0 127 0" result="hardAlpha"/>
<feOffset dx="3" dy="-7"/>
<feGaussianBlur stdDeviation="9"/>
<feColorMatrix type="matrix" values="0 0 0 0 0 0 0 0 0 0 0 0 0 0 0 0 0 0 1 0"/>
<feBlend mode="overlay" in2="BackgroundImageFix" result="effect1_dropShadow_75_1848"/>
<feBlend mode="normal" in="SourceGraphic" in2="effect1_dropShadow_75_1848" result="shape"/>
</filter>
<linearGradient id="paint0_linear_75_1848" x1="149.702" y1="60.2963" x2="262.748" y2="76.6362" gradientUnits="userSpaceOnUse">
<stop stop-color="#EAF2FF"/>
<stop offset="1" stop-color="#76AEFF"/>
</linearGradient>
<linearGradient id="paint1_linear_75_1848" x1="18.4271" y1="36.6907" x2="122.427" y2="36.6907" gradientUnits="userSpaceOnUse">
<stop stop-color="#91BDFF"/>
<stop offset="1" stop-color="#91BDFF" stop-opacity="0"/>
</linearGradient>
<linearGradient id="paint2_linear_75_1848" x1="85.4271" y1="71.951" x2="127.027" y2="71.951" gradientUnits="userSpaceOnUse">
<stop offset="0.317708" stop-color="#91BDFF"/>
<stop offset="1" stop-color="#91BDFF" stop-opacity="0"/>
</linearGradient>
<linearGradient id="paint3_linear_75_1848" x1="122.227" y1="65.345" x2="164.627" y2="65.345" gradientUnits="userSpaceOnUse">
<stop offset="0.317708" stop-color="#91BDFF"/>
<stop offset="0.78125" stop-color="#91BDFF" stop-opacity="0"/>
</linearGradient>
<linearGradient id="paint4_linear_75_1848" x1="74.7065" y1="65.499" x2="73.202" y2="86.1808" gradientUnits="userSpaceOnUse">
<stop offset="0.0208333" stop-color="#6AA3FF"/>
<stop offset="1" stop-color="#4A87FD" stop-opacity="0"/>
</linearGradient>
<linearGradient id="paint5_linear_75_1848" x1="106.427" y1="92.4572" x2="125.512" y2="57.3143" gradientUnits="userSpaceOnUse">
<stop stop-color="#7AB2FF" stop-opacity="0"/>
<stop offset="0.0001" stop-color="#7AB2FF" stop-opacity="0"/>
<stop offset="1" stop-color="#7AB2FF"/>
</linearGradient>
<linearGradient id="paint6_linear_75_1848" x1="137.574" y1="32.9804" x2="271.554" y2="61.4923" gradientUnits="userSpaceOnUse">
<stop stop-color="#EAF2FF"/>
<stop offset="1" stop-color="#76AEFF"/>
</linearGradient>
<linearGradient id="paint7_linear_75_1848" x1="31.2239" y1="58.1095" x2="59.6967" y2="105.751" gradientUnits="userSpaceOnUse">
<stop stop-color="#76AEFF"/>
<stop offset="1" stop-color="#0F53FA"/>
</linearGradient>
<linearGradient id="paint8_linear_75_1848" x1="28.5009" y1="44.0559" x2="65.3746" y2="101.995" gradientUnits="userSpaceOnUse">
<stop stop-color="#76AEFF"/>
<stop offset="1" stop-color="#0F53FA"/>
</linearGradient>
<linearGradient id="paint9_linear_75_1848" x1="12.2517" y1="91.206" x2="13.2894" y2="108.33" gradientUnits="userSpaceOnUse">
<stop offset="0.0208333" stop-color="white"/>
<stop offset="1" stop-color="white" stop-opacity="0"/>
</linearGradient>
<linearGradient id="paint10_linear_75_1848" x1="53.7604" y1="93.7044" x2="1.6589" y2="90.0754" gradientUnits="userSpaceOnUse">
<stop offset="0.00520833" stop-color="white" stop-opacity="0"/>
<stop offset="0.442708" stop-color="white"/>
<stop offset="0.609375" stop-color="white"/>
<stop offset="0.970311" stop-color="white" stop-opacity="0"/>
</linearGradient>
</defs>
</svg>
