<svg width="32" height="32" viewBox="0 0 32 32" fill="none" xmlns="http://www.w3.org/2000/svg">
<g clip-path="url(#clip0_1_25327)">
<path fill-rule="evenodd" clip-rule="evenodd" d="M17.1591 16.2368L16.1796 17.2163C16.0488 17.3471 15.8367 17.3471 15.706 17.2163L14.7265 16.2369C14.5957 16.1061 14.5957 15.894 14.7265 15.7633L15.706 14.7837C15.8368 14.6528 16.0489 14.6528 16.1797 14.7837L17.1591 15.7632C17.2899 15.894 17.2899 16.106 17.1591 16.2368ZM19.2082 15.0035L16.9393 12.7346C16.389 12.1843 15.4967 12.1843 14.9464 12.7346L12.6774 15.0037C12.127 15.554 12.127 16.4462 12.6774 16.9967L14.9462 19.2655C15.4965 19.8158 16.3888 19.8158 16.9391 19.2655L19.2082 16.9964C19.7585 16.446 19.7585 15.5537 19.2082 15.0035Z" fill="#29B5E8"/>
<path fill-rule="evenodd" clip-rule="evenodd" d="M12.1726 0C11.0554 0 10.1496 0.905749 10.1496 2.02299V6.21188L6.49445 4.10153C5.52691 3.5429 4.28967 3.8744 3.73104 4.84203C3.17242 5.80958 3.50392 7.04682 4.47146 7.60544L10.8888 11.3105C11.238 11.5976 11.6852 11.7701 12.1726 11.7701C13.2899 11.7701 14.1956 10.8644 14.1956 9.74715V2.02299C14.1956 0.905749 13.2899 0 12.1726 0Z" fill="#29B5E8"/>
<path fill-rule="evenodd" clip-rule="evenodd" d="M10.5822 16.7677C10.5947 16.7374 10.607 16.7071 10.618 16.6762C10.6302 16.6416 10.641 16.6069 10.6512 16.572C10.6592 16.5451 10.667 16.5185 10.6738 16.4914C10.6832 16.454 10.6911 16.4166 10.6982 16.3789C10.7033 16.3523 10.7081 16.3258 10.7121 16.2991C10.7176 16.2623 10.7219 16.2256 10.7253 16.1886C10.728 16.1593 10.7303 16.13 10.7319 16.1006C10.7335 16.0671 10.7341 16.0336 10.7341 16C10.7341 15.9665 10.7335 15.9331 10.7319 15.8995C10.7303 15.87 10.728 15.8408 10.7253 15.8115C10.7219 15.7745 10.7176 15.7379 10.7121 15.7009C10.7081 15.6742 10.7033 15.6477 10.6982 15.6212C10.6911 15.5836 10.6832 15.5461 10.6738 15.5087C10.667 15.4817 10.6592 15.4549 10.6512 15.4282C10.641 15.3932 10.6302 15.3585 10.618 15.3239C10.607 15.293 10.5947 15.2626 10.5822 15.2323C10.5702 15.2031 10.5584 15.1741 10.5449 15.1453C10.5279 15.1089 10.509 15.0733 10.4899 15.0379C10.4809 15.0215 10.474 15.0047 10.4647 14.9885C10.4611 14.9823 10.4567 14.9768 10.453 14.9706C10.4307 14.9328 10.4063 14.8963 10.3815 14.86C10.3682 14.8404 10.3554 14.8202 10.3415 14.8013C10.3175 14.7688 10.2915 14.7377 10.2656 14.7064C10.248 14.6854 10.2312 14.6637 10.213 14.6435C10.1903 14.6185 10.1658 14.595 10.1418 14.5709C10.1177 14.5469 10.0942 14.5223 10.0692 14.4997C10.0489 14.4816 10.0273 14.4647 10.0063 14.4472C9.97502 14.4212 9.94403 14.3951 9.91138 14.3712C9.89244 14.3573 9.8723 14.3445 9.85272 14.3312C9.8164 14.3064 9.77989 14.282 9.7421 14.2597C9.73594 14.2561 9.73042 14.2517 9.72417 14.2481L3.03486 10.386C2.06723 9.82732 0.829985 10.1589 0.271363 11.1264C-0.287259 12.0941 0.0442361 13.3313 1.01187 13.8899L4.66668 16L1.01187 18.1102C0.0442361 18.6688 -0.287259 19.9061 0.271363 20.8736C0.829985 21.8412 2.06723 22.1727 3.03486 21.6141L9.72417 17.752C9.73042 17.7483 9.73594 17.744 9.7421 17.7403C9.77989 17.7181 9.8164 17.6936 9.85272 17.6689C9.8723 17.6555 9.89244 17.6429 9.91138 17.6288C9.94403 17.6049 9.97502 17.5789 10.0063 17.5529C10.0273 17.5355 10.0489 17.5186 10.0692 17.5003C10.0941 17.4777 10.1177 17.4533 10.1417 17.4292C10.1658 17.4052 10.1903 17.3815 10.213 17.3564C10.2312 17.3364 10.2479 17.3147 10.2655 17.2938C10.2915 17.2626 10.3175 17.2314 10.3415 17.1987C10.3554 17.1798 10.3681 17.1597 10.3814 17.1402C10.4063 17.1037 10.4307 17.0672 10.4531 17.0295C10.4568 17.0233 10.4611 17.0178 10.4647 17.0115C10.474 16.9954 10.4809 16.9786 10.4898 16.9623C10.509 16.9267 10.5279 16.8912 10.5449 16.8546C10.5584 16.826 10.5702 16.7968 10.5822 16.7677Z" fill="#29B5E8"/>
<path fill-rule="evenodd" clip-rule="evenodd" d="M12.1726 20.23C11.6852 20.23 11.2381 20.4024 10.8888 20.6896L4.47146 24.3946C3.50392 24.9532 3.17242 26.1905 3.73104 27.1581C4.28967 28.1256 5.52691 28.4572 6.49445 27.8986L10.1496 25.7882V29.9771C10.1496 31.0944 11.0554 32.0001 12.1726 32.0001C13.2899 32.0001 14.1956 31.0944 14.1956 29.9771V22.253C14.1956 21.1357 13.2899 20.23 12.1726 20.23Z" fill="#29B5E8"/>
<path fill-rule="evenodd" clip-rule="evenodd" d="M27.414 24.3946L20.9967 20.6896C20.6474 20.4024 20.2003 20.23 19.7129 20.23C18.5956 20.23 17.6899 21.1357 17.6899 22.253V29.9771C17.6899 31.0944 18.5956 32.0001 19.7129 32.0001C20.8301 32.0001 21.7359 31.0944 21.7359 29.9771V25.7882L25.391 27.8985C26.3586 28.4572 27.5959 28.1256 28.1545 27.1581C28.7132 26.1905 28.3816 24.9532 27.414 24.3946Z" fill="#29B5E8"/>
<path fill-rule="evenodd" clip-rule="evenodd" d="M30.8736 18.1101L27.2188 16.0001L30.8736 13.8899C31.8412 13.3313 32.1728 12.094 31.6141 11.1265C31.0555 10.1589 29.8182 9.82737 28.8506 10.386L22.1613 14.2481C22.1551 14.2517 22.1496 14.2561 22.1434 14.2597C22.1056 14.282 22.0691 14.3065 22.0327 14.3312C22.0132 14.3445 21.9931 14.3572 21.9741 14.3712C21.9415 14.3952 21.9104 14.4212 21.8792 14.4471C21.8582 14.4646 21.8366 14.4815 21.8163 14.4997C21.7912 14.5223 21.7678 14.5468 21.7437 14.5709C21.7197 14.5949 21.6952 14.6185 21.6724 14.6436C21.6543 14.6638 21.6375 14.6854 21.6199 14.7064C21.594 14.7376 21.568 14.7687 21.544 14.8014C21.5301 14.8203 21.5174 14.8403 21.504 14.8599C21.4792 14.8963 21.4548 14.9328 21.4325 14.9705C21.4288 14.9768 21.4244 14.9822 21.4208 14.9886C21.4115 15.0048 21.4045 15.0215 21.3956 15.0379C21.3765 15.0734 21.3576 15.1088 21.3406 15.1454C21.3271 15.174 21.3153 15.2032 21.3033 15.2323C21.2908 15.2626 21.2785 15.2929 21.2675 15.3238C21.2552 15.3584 21.2446 15.3932 21.2343 15.4281C21.2263 15.4549 21.2185 15.4816 21.2118 15.5087C21.2023 15.5461 21.1944 15.5835 21.1873 15.6212C21.1822 15.6478 21.1774 15.6743 21.1734 15.7009C21.1679 15.7378 21.1636 15.7746 21.1602 15.8115C21.1575 15.8407 21.1552 15.87 21.1536 15.8995C21.152 15.933 21.1514 15.9665 21.1514 16.0001C21.1514 16.0335 21.152 16.067 21.1536 16.1006C21.1552 16.1301 21.1575 16.1592 21.1602 16.1887C21.1636 16.2255 21.1679 16.2622 21.1734 16.2991C21.1774 16.3259 21.1822 16.3523 21.1873 16.3788C21.1944 16.4165 21.2023 16.454 21.2118 16.4914C21.2185 16.5184 21.2263 16.5451 21.2343 16.5719C21.2446 16.6069 21.2552 16.6415 21.2675 16.6761C21.2785 16.7071 21.2908 16.7374 21.3033 16.7677C21.3153 16.7969 21.3271 16.8259 21.3406 16.8547C21.3576 16.8912 21.3765 16.9268 21.3957 16.9624C21.4045 16.9786 21.4115 16.9954 21.4208 17.0116C21.4244 17.0177 21.4288 17.0233 21.4324 17.0295C21.4548 17.0672 21.4792 17.1038 21.504 17.1401C21.5174 17.1597 21.5301 17.1798 21.544 17.1987C21.568 17.2313 21.594 17.2625 21.6201 17.2938C21.6376 17.3147 21.6543 17.3363 21.6724 17.3565C21.6952 17.3815 21.7197 17.4051 21.7438 17.4292C21.7678 17.4532 21.7913 17.4777 21.8163 17.5003C21.8366 17.5185 21.8582 17.5354 21.8792 17.5528C21.9104 17.5789 21.9415 17.6049 21.9741 17.6289C21.9931 17.6428 22.0132 17.6555 22.0327 17.6689C22.0691 17.6937 22.1056 17.7181 22.1434 17.7404C22.1496 17.7441 22.1551 17.7483 22.1613 17.752L28.8506 21.6141C29.8182 22.1728 31.0555 21.8412 31.6141 20.8736C32.1728 19.906 31.8412 18.6688 30.8736 18.1101Z" fill="#29B5E8"/>
<path fill-rule="evenodd" clip-rule="evenodd" d="M28.1545 4.84203C27.5959 3.87449 26.3587 3.5429 25.391 4.10153L21.7358 6.21188V2.02299C21.7358 0.905749 20.8302 0 19.7128 0C18.5956 0 17.6898 0.905749 17.6898 2.02299V9.74715C17.6898 10.8645 18.5956 11.7701 19.7128 11.7701C20.2003 11.7701 20.6475 11.5976 20.9967 11.3105L27.414 7.60544C28.3816 7.04691 28.7131 5.80958 28.1545 4.84203Z" fill="#29B5E8"/>
</g>
<defs>
<clipPath id="clip0_1_25327">
<rect width="32" height="32" fill="white"/>
</clipPath>
</defs>
</svg>
